<svg width="17" height="17" viewBox="0 0 17 17" fill="#ffffff" xmlns="http://www.w3.org/2000/svg">
<path d="M16.5 16H12.4667V13.989C12.8926 14.4309 13.2116 14.7197 13.2317 14.7379C13.422 14.9096 13.7113 14.9096 13.9016 14.7379C14.9624 13.7808 17 11.6173 17 10.1C17 7.74767 14.6804 6.0967 12.4667 6.84737V2.63333C12.4667 2.3572 12.2428 2.13333 11.9667 2.13333H10.4667V0.5C10.4667 0.223867 10.2428 0 9.96667 0H5.7C5.42387 0 5.2 0.223867 5.2 0.5V2.13333H3.7C3.42387 2.13333 3.2 2.3572 3.2 2.63333V7.46667H0.5C0.223867 7.46667 0 7.69053 0 7.96667V16.5C0 16.7761 0.223867 17 0.5 17H16.5C16.7761 17 17 16.7761 17 16.5C17 16.2239 16.7761 16 16.5 16ZM3.2 9.6H2.63333C2.3572 9.6 2.13333 9.82387 2.13333 10.1C2.13333 10.3761 2.3572 10.6 2.63333 10.6H3.2V11.7333H2.63333C2.3572 11.7333 2.13333 11.9572 2.13333 12.2333C2.13333 12.5095 2.3572 12.7333 2.63333 12.7333H3.2V13.8667H2.63333C2.3572 13.8667 2.13333 14.0905 2.13333 14.3667C2.13333 14.6428 2.3572 14.8667 2.63333 14.8667H3.2V16H1V8.46667H3.2V9.6ZM6.2 1H9.46667V2.13333H6.2V1ZM11.4667 16H4.2C4.2 15.477 4.2 3.65943 4.2 3.13333H11.4667V7.38577C10.6561 8.01433 10.1333 8.99723 10.1333 10.1C10.1333 10.8274 10.5818 11.7544 11.4667 12.8586V16ZM11.1333 10.1C11.1333 8.75827 12.2249 7.66667 13.5667 7.66667C14.9084 7.66667 16 8.75827 16 10.1C16 11.0156 14.6223 12.6581 13.5667 13.6815C12.82 12.9576 11.1333 11.1265 11.1333 10.1Z" fill="#FFFFFF"/>
<path d="M11.1333 10.1C11.1333 8.75827 12.2249 7.66667 13.5667 7.66667C14.9084 7.66667 16 8.75827 16 10.1C16 11.0156 14.6223 12.6581 13.5667 13.6815C12.82 12.9576 11.1333 11.1265 11.1333 10.1Z" fill="#FFFFFF
"/>
<path d="M6.63337 4.26668H5.83337C5.55724 4.26668 5.33337 4.49054 5.33337 4.76668C5.33337 5.04281 5.55724 5.26668 5.83337 5.26668H6.63337C6.90951 5.26668 7.13337 5.04281 7.13337 4.76668C7.13337 4.49054 6.90951 4.26668 6.63337 4.26668Z" fill="#FFFFFF"/>
<path d="M9.03333 5.26668H9.83333C10.1095 5.26668 10.3333 5.04281 10.3333 4.76668C10.3333 4.49054 10.1095 4.26668 9.83333 4.26668H9.03333C8.75719 4.26668 8.53333 4.49054 8.53333 4.76668C8.53333 5.04281 8.75719 5.26668 9.03333 5.26668Z" fill="#FFFFFF"/>
<path d="M6.63337 6.40001H5.83337C5.55724 6.40001 5.33337 6.62388 5.33337 6.90001C5.33337 7.17614 5.55724 7.40001 5.83337 7.40001H6.63337C6.90951 7.40001 7.13337 7.17614 7.13337 6.90001C7.13337 6.62388 6.90951 6.40001 6.63337 6.40001Z" fill="#FFFFFF"/>
<path d="M10.3333 6.90001C10.3333 6.62388 10.1095 6.40001 9.83333 6.40001H9.03333C8.75719 6.40001 8.53333 6.62388 8.53333 6.90001C8.53333 7.17614 8.75719 7.40001 9.03333 7.40001H9.83333C10.1095 7.40001 10.3333 7.17614 10.3333 6.90001Z" fill="#FFFFFF"/>
<path d="M6.63337 8.53333H5.83337C5.55724 8.53333 5.33337 8.75719 5.33337 9.03332C5.33337 9.30946 5.55724 9.53332 5.83337 9.53332H6.63337C6.90951 9.53332 7.13337 9.30946 7.13337 9.03332C7.13337 8.75719 6.90951 8.53333 6.63337 8.53333Z" fill="#FFFFFF"/>
<path d="M6.63337 10.6667H5.83337C5.55724 10.6667 5.33337 10.8905 5.33337 11.1667C5.33337 11.4428 5.55724 11.6667 5.83337 11.6667H6.63337C6.90951 11.6667 7.13337 11.4428 7.13337 11.1667C7.13337 10.8905 6.90951 10.6667 6.63337 10.6667Z" fill="#FFFFFF"/>
<path d="M6.63337 12.8H5.83337C5.55724 12.8 5.33337 13.0239 5.33337 13.3C5.33337 13.5761 5.55724 13.8 5.83337 13.8H6.63337C6.90951 13.8 7.13337 13.5761 7.13337 13.3C7.13337 13.0239 6.90951 12.8 6.63337 12.8Z" fill="#FFFFFF"/>
</svg>
