<svg width="16" height="14" viewBox="0 0 16 14" fill="none" xmlns="http://www.w3.org/2000/svg">
<path d="M6.5 6.5C5.59775 6.5 4.82893 6.18324 4.19355 5.54971C3.55816 4.91618 3.24047 4.14961 3.24047 3.25C3.24047 2.35039 3.55816 1.58382 4.19355 0.950292C4.82893 0.316764 5.59775 0 6.5 0C7.40225 0 8.17107 0.316764 8.80645 0.950292C9.44184 1.58382 9.75953 2.35039 9.75953 3.25C9.75953 4.14961 9.44184 4.91618 8.80645 5.54971C8.17107 6.18324 7.40225 6.5 6.5 6.5ZM6.5 8.1345C7.30059 8.1345 8.18377 8.24854 9.14956 8.47661C10.1153 8.70468 10.9985 9.07846 11.7991 9.59795C12.5997 10.1174 13 10.7066 13 11.3655V13H0V11.3655C0 10.7066 0.400293 10.1174 1.20088 9.59795C2.00147 9.07846 2.88465 8.70468 3.85044 8.47661C4.81623 8.24854 5.69941 8.1345 6.5 8.1345Z" fill="#1F71F7"/>
<path d="M10.6578 6.14874L10.6578 6.14866L6.34585 10.4605L6.22184 10.5845L6.20246 10.7588L6.00541 12.5311C6.00541 12.5311 6.0054 12.5311 6.0054 12.5311C5.94364 13.0864 6.41271 13.556 6.96823 13.4947C6.96826 13.4947 6.9683 13.4947 6.96833 13.4947L8.73923 13.2992L8.91377 13.2799L9.03793 13.1557L13.3487 8.84473L13.3488 8.84481L13.7024 8.49123L14.5798 7.61376L14.5799 7.61367C15.0659 7.12739 15.066 6.33918 14.5798 5.85293L13.6471 4.92022C13.1609 4.434 12.3725 4.434 11.8863 4.92022L11.0089 5.79769L10.6578 6.14874Z" fill="#1F71F7" stroke="white"/>
</svg>
