<svg width="15" height="17" viewBox="0 0 15 17" fill="none" xmlns="http://www.w3.org/2000/svg">
<path d="M10.2077 9.18621L11.9338 9.52365C11.9516 10.3575 12.6525 11.0193 13.4991 11.0017C14.3457 10.9841 15.0175 10.2937 14.9997 9.45985C14.9818 8.62596 14.2809 7.96422 13.4343 7.98183C12.8398 7.99419 12.3061 8.34411 12.065 8.8796L10.2942 8.53342C10.2924 7.89516 10.0402 7.28227 9.59034 6.82285L11.8823 3.63369C12.8491 4.08646 14.0054 3.68156 14.465 2.72935C14.9247 1.77713 14.5136 0.638192 13.5469 0.185425C12.5802 -0.267343 11.4239 0.137553 10.9642 1.08977C10.6133 1.81667 10.7629 2.68222 11.3383 3.25376L9.06843 6.41209C8.02454 5.79456 6.68154 6.0021 5.87974 6.90476L2.89984 4.62528C3.29098 3.88368 2.99775 2.97014 2.24484 2.58487C1.49193 2.1996 0.564463 2.48843 0.173317 3.23003C-0.21783 3.97163 0.0754049 4.88517 0.828311 5.27044C1.35734 5.54116 1.99762 5.48598 2.47084 5.12888L5.50823 7.45229C5.00354 8.46789 5.26076 9.6912 6.13346 10.4258L4.28756 12.9965C3.31032 12.4123 2.03731 12.7191 1.44425 13.6817C0.851195 14.6443 1.16264 15.8982 2.13993 16.4823C3.11717 17.0665 4.39018 16.7597 4.98324 15.7971C5.44412 15.049 5.36897 14.0946 4.79642 13.4255L6.69213 10.7848C7.3407 11.0885 8.09007 11.1051 8.75182 10.8303L11.0011 14.1032C10.3396 14.7921 10.3703 15.8788 11.0697 16.5304C11.7692 17.182 12.8724 17.1518 13.534 16.4628C14.1955 15.7739 14.1648 14.6872 13.4654 14.0356C12.9496 13.5551 12.1896 13.4307 11.5438 13.721L9.32695 10.4953C9.75623 10.164 10.0653 9.70479 10.2077 9.18621Z" fill="#1F71F7"/>
</svg>
